<?xml version="1.0" encoding="utf-8"?>
<!-- Generator: Moho 12.5 build 22438 -->
<!DOCTYPE svg PUBLIC "-//W3C//DTD SVG 1.1//EN" "http://www.w3.org/Graphics/SVG/1.1/DTD/svg11.dtd">
<svg version="1.1" id="Frame_0" xmlns="http://www.w3.org/2000/svg" xmlns:xlink="http://www.w3.org/1999/xlink" width="250px" height="60px">
<g id="Layer_5">
<g id="">
<path fill="#ffffff" fill-rule="evenodd" stroke="none" d="M 11.039 31.946 C 11.039 28.097 11.039 24.248 11.039 20.398 C 10.636 20.399 10.233 20.399 9.830 20.398 C 9.830 20.160 9.830 19.922 9.830 19.684 C 11.029 19.684 12.227 19.684 13.426 19.684 C 13.426 19.922 13.426 20.160 13.426 20.398 C 13.023 20.399 12.620 20.399 12.217 20.398 C 12.217 22.122 12.217 23.846 12.217 25.569 C 13.565 25.570 14.913 25.570 16.261 25.569 C 16.261 23.846 16.261 22.122 16.261 20.398 C 15.858 20.399 15.455 20.399 15.052 20.398 C 15.052 20.160 15.052 19.922 15.052 19.684 C 16.251 19.684 17.449 19.684 18.648 19.684 C 18.648 19.922 18.648 20.160 18.648 20.398 C 18.245 20.399 17.842 20.399 17.439 20.398 C 17.439 24.248 17.439 28.097 17.439 31.946 C 17.842 31.946 18.245 31.946 18.648 31.946 C 18.648 32.184 18.648 32.422 18.648 32.661 C 17.449 32.661 16.251 32.661 15.052 32.661 C 15.052 32.422 15.052 32.184 15.052 31.946 C 15.455 31.946 15.858 31.946 16.261 31.946 C 16.261 30.065 16.261 28.183 16.261 26.302 C 14.913 26.302 13.565 26.302 12.217 26.302 C 12.217 28.183 12.217 30.065 12.217 31.946 C 12.620 31.946 13.023 31.946 13.426 31.946 C 13.426 32.184 13.426 32.422 13.426 32.661 C 12.227 32.661 11.029 32.661 9.830 32.661 C 9.830 32.422 9.830 32.184 9.830 31.946 C 10.233 31.946 10.636 31.946 11.039 31.946 Z"/>
<path fill="#ffffff" fill-rule="evenodd" stroke="none" d="M 22.190 20.398 C 22.190 24.248 22.190 28.097 22.190 31.946 C 22.593 31.946 22.996 31.946 23.399 31.946 C 23.399 32.184 23.399 32.422 23.399 32.661 C 22.200 32.661 21.001 32.661 19.803 32.661 C 19.803 32.422 19.803 32.184 19.803 31.946 C 20.205 31.946 20.608 31.946 21.011 31.946 C 21.011 28.097 21.011 24.248 21.011 20.398 C 20.608 20.399 20.205 20.399 19.803 20.398 C 19.803 20.160 19.803 19.922 19.803 19.684 C 21.001 19.684 22.200 19.684 23.399 19.684 C 23.399 19.922 23.399 20.160 23.399 20.398 C 22.996 20.399 22.593 20.399 22.190 20.398 Z"/>
</g>
<g id="">
<path fill="#ffffff" fill-rule="evenodd" stroke="none" d="M 21.647 45.726 C 21.638 45.726 21.629 45.726 21.620 45.726 C 22.093 47.078 22.540 48.429 22.986 49.781 C 22.055 49.781 21.124 49.781 20.192 49.781 C 20.668 48.429 21.144 47.078 21.620 45.726 M 18.907 53.433 C 19.358 53.433 19.809 53.433 20.260 53.433 C 20.260 53.624 20.260 53.816 20.260 54.008 C 19.162 54.008 18.063 54.008 16.965 54.008 C 16.965 53.816 16.965 53.624 16.965 53.433 C 17.394 53.433 17.822 53.433 18.251 53.433 C 19.423 50.107 20.596 46.781 21.769 43.454 C 21.947 43.454 22.125 43.454 22.303 43.454 C 23.403 46.781 24.504 50.107 25.604 53.433 C 26.051 53.433 26.497 53.433 26.944 53.433 C 26.944 53.624 26.944 53.816 26.944 54.008 C 25.557 54.008 24.170 54.008 22.783 54.008 C 22.783 53.816 22.783 53.624 22.783 53.433 C 23.252 53.433 23.721 53.433 24.191 53.433 C 23.852 52.409 23.514 51.386 23.176 50.363 C 22.111 50.363 21.047 50.363 19.982 50.363 C 19.624 51.386 19.265 52.409 18.907 53.433 Z"/>
<path fill="#ffffff" fill-rule="evenodd" stroke="none" d="M 35.983 54.116 C 35.802 54.116 35.622 54.116 35.441 54.116 C 33.491 50.902 31.541 47.688 29.589 44.475 C 29.578 44.478 29.567 44.480 29.555 44.482 C 29.556 47.466 29.555 50.449 29.555 53.433 C 29.961 53.433 30.367 53.433 30.773 53.433 C 30.773 53.624 30.773 53.816 30.773 54.008 C 29.713 54.008 28.653 54.008 27.594 54.008 C 27.594 53.816 27.594 53.624 27.594 53.433 C 28.045 53.433 28.496 53.433 28.947 53.433 C 28.947 50.334 28.947 47.236 28.947 44.137 C 28.496 44.137 28.045 44.137 27.594 44.137 C 27.594 43.946 27.594 43.754 27.594 43.562 C 28.602 43.562 29.610 43.562 30.618 43.562 C 32.192 46.155 33.765 48.748 35.340 51.341 C 35.351 51.338 35.362 51.336 35.374 51.333 C 35.373 48.935 35.374 46.536 35.374 44.137 C 34.923 44.137 34.472 44.137 34.021 44.137 C 34.021 43.946 34.021 43.754 34.021 43.562 C 35.126 43.562 36.231 43.562 37.336 43.562 C 37.336 43.754 37.336 43.946 37.336 44.137 C 36.885 44.137 36.434 44.137 35.983 44.137 C 35.983 47.463 35.983 50.790 35.983 54.116 Z"/>
<path fill="#ffffff" fill-rule="evenodd" stroke="none" d="M 46.462 45.726 C 46.453 45.726 46.444 45.726 46.435 45.726 C 46.909 47.078 47.355 48.429 47.802 49.781 C 46.870 49.781 45.939 49.781 45.008 49.781 C 45.483 48.429 45.959 47.078 46.435 45.726 M 43.722 53.433 C 44.173 53.433 44.624 53.433 45.075 53.433 C 45.075 53.624 45.075 53.816 45.075 54.008 C 43.977 54.008 42.879 54.008 41.780 54.008 C 41.780 53.816 41.780 53.624 41.780 53.433 C 42.209 53.433 42.637 53.433 43.066 53.433 C 44.239 50.107 45.411 46.781 46.584 43.454 C 46.762 43.454 46.940 43.454 47.118 43.454 C 48.219 46.781 49.319 50.107 50.420 53.433 C 50.866 53.433 51.313 53.433 51.759 53.433 C 51.759 53.624 51.759 53.816 51.759 54.008 C 50.372 54.008 48.986 54.008 47.599 54.008 C 47.599 53.816 47.599 53.624 47.599 53.433 C 48.068 53.433 48.537 53.433 49.006 53.433 C 48.668 52.409 48.329 51.386 47.991 50.363 C 46.927 50.363 45.862 50.363 44.798 50.363 C 44.439 51.386 44.081 52.409 43.722 53.433 Z"/>
<path fill="#ffffff" fill-rule="evenodd" stroke="none" d="M 52.788 50.881 C 52.946 50.881 53.103 50.881 53.261 50.881 C 53.311 51.427 53.410 51.882 53.559 52.247 C 53.708 52.611 53.891 52.901 54.107 53.116 C 54.328 53.332 54.578 53.485 54.858 53.576 C 55.142 53.663 55.442 53.706 55.758 53.706 C 56.137 53.706 56.459 53.655 56.725 53.555 C 56.996 53.454 57.217 53.315 57.388 53.138 C 57.564 52.956 57.690 52.740 57.767 52.491 C 57.848 52.237 57.889 51.959 57.889 51.657 C 57.889 51.283 57.830 50.976 57.713 50.737 C 57.596 50.492 57.431 50.286 57.219 50.119 C 57.012 49.946 56.761 49.797 56.468 49.673 C 56.175 49.548 55.852 49.419 55.501 49.285 C 55.149 49.150 54.813 49.009 54.493 48.860 C 54.177 48.712 53.897 48.527 53.654 48.307 C 53.410 48.086 53.216 47.818 53.072 47.502 C 52.932 47.181 52.862 46.783 52.862 46.308 C 52.862 45.863 52.930 45.455 53.065 45.086 C 53.200 44.717 53.401 44.403 53.667 44.145 C 53.933 43.881 54.263 43.677 54.655 43.533 C 55.052 43.390 55.512 43.318 56.035 43.318 C 56.243 43.318 56.457 43.330 56.678 43.354 C 56.899 43.373 57.118 43.404 57.334 43.447 C 57.555 43.490 57.772 43.543 57.984 43.605 C 58.196 43.663 58.396 43.728 58.586 43.799 C 58.613 44.669 58.640 45.539 58.667 46.409 C 58.509 46.409 58.351 46.409 58.193 46.409 C 58.153 45.891 58.063 45.470 57.923 45.144 C 57.783 44.818 57.611 44.564 57.409 44.382 C 57.210 44.195 56.987 44.068 56.739 44.001 C 56.495 43.929 56.245 43.893 55.988 43.893 C 55.645 43.893 55.347 43.938 55.095 44.029 C 54.842 44.116 54.632 44.243 54.466 44.411 C 54.299 44.573 54.172 44.775 54.087 45.014 C 54.006 45.249 53.965 45.515 53.965 45.812 C 53.965 46.167 54.024 46.462 54.141 46.697 C 54.258 46.931 54.423 47.135 54.635 47.308 C 54.851 47.475 55.108 47.626 55.406 47.761 C 55.708 47.890 56.040 48.027 56.401 48.170 C 56.730 48.305 57.052 48.448 57.368 48.602 C 57.688 48.750 57.972 48.940 58.220 49.170 C 58.473 49.395 58.676 49.675 58.829 50.011 C 58.983 50.341 59.059 50.754 59.059 51.247 C 59.059 51.726 58.980 52.153 58.822 52.527 C 58.669 52.901 58.446 53.215 58.153 53.469 C 57.864 53.723 57.510 53.917 57.091 54.051 C 56.671 54.185 56.198 54.252 55.670 54.252 C 55.440 54.252 55.201 54.240 54.953 54.216 C 54.709 54.192 54.466 54.156 54.222 54.108 C 53.983 54.060 53.749 54.005 53.518 53.943 C 53.288 53.881 53.074 53.809 52.876 53.727 C 52.846 52.778 52.817 51.830 52.788 50.881 Z"/>
<path fill="#ffffff" fill-rule="evenodd" stroke="none" d="M 63.328 44.137 C 63.328 45.793 63.328 47.449 63.328 49.105 C 63.606 49.105 63.883 49.105 64.160 49.105 C 64.679 49.105 65.114 49.064 65.466 48.983 C 65.822 48.896 66.107 48.753 66.319 48.551 C 66.531 48.350 66.682 48.084 66.772 47.753 C 66.866 47.418 66.914 47.001 66.914 46.503 C 66.914 46.090 66.878 45.736 66.806 45.439 C 66.738 45.141 66.607 44.897 66.413 44.705 C 66.219 44.509 65.949 44.365 65.601 44.274 C 65.259 44.183 64.814 44.137 64.269 44.137 C 63.955 44.137 63.642 44.137 63.328 44.137 M 60.656 43.562 C 61.887 43.562 63.118 43.562 64.350 43.562 C 65.099 43.562 65.728 43.634 66.237 43.778 C 66.747 43.922 67.157 44.123 67.469 44.382 C 67.784 44.636 68.010 44.943 68.145 45.302 C 68.285 45.657 68.355 46.047 68.355 46.474 C 68.355 46.876 68.292 47.269 68.165 47.653 C 68.039 48.036 67.818 48.379 67.502 48.681 C 67.191 48.983 66.772 49.225 66.244 49.407 C 65.721 49.589 65.060 49.680 64.262 49.680 C 63.951 49.680 63.639 49.680 63.328 49.680 C 63.328 50.931 63.328 52.182 63.328 53.433 C 63.802 53.433 64.275 53.433 64.749 53.433 C 64.749 53.624 64.749 53.816 64.749 54.008 C 63.385 54.008 62.020 54.008 60.656 54.008 C 60.656 53.816 60.656 53.624 60.656 53.433 C 61.107 53.433 61.558 53.433 62.009 53.433 C 62.009 50.334 62.009 47.236 62.009 44.137 C 61.558 44.137 61.107 44.137 60.656 44.137 C 60.656 43.946 60.656 43.754 60.656 43.562 Z"/>
<path fill="#ffffff" fill-rule="evenodd" stroke="none" d="M 72.387 44.137 C 72.387 47.236 72.387 50.334 72.387 53.433 C 72.838 53.433 73.289 53.433 73.740 53.433 C 73.740 53.624 73.740 53.816 73.740 54.008 C 72.398 54.008 71.057 54.008 69.715 54.008 C 69.715 53.816 69.715 53.624 69.715 53.433 C 70.166 53.433 70.617 53.433 71.068 53.433 C 71.068 50.334 71.068 47.236 71.068 44.137 C 70.617 44.137 70.166 44.137 69.715 44.137 C 69.715 43.946 69.715 43.754 69.715 43.562 C 71.057 43.562 72.398 43.562 73.740 43.562 C 73.740 43.754 73.740 43.946 73.740 44.137 C 73.289 44.137 72.838 44.137 72.387 44.137 Z"/>
<path fill="#ffffff" fill-rule="evenodd" stroke="none" d="M 77.705 44.137 C 77.705 45.518 77.705 46.898 77.705 48.278 C 78.005 48.278 78.304 48.278 78.604 48.278 C 79.092 48.278 79.497 48.235 79.822 48.149 C 80.151 48.062 80.415 47.928 80.614 47.746 C 80.817 47.559 80.959 47.324 81.040 47.042 C 81.126 46.754 81.168 46.409 81.168 46.007 C 81.168 45.671 81.135 45.386 81.067 45.151 C 80.999 44.911 80.873 44.717 80.688 44.569 C 80.508 44.420 80.255 44.312 79.930 44.245 C 79.610 44.173 79.193 44.137 78.679 44.137 C 78.354 44.137 78.029 44.137 77.705 44.137 M 75.032 43.562 C 76.275 43.562 77.517 43.562 78.760 43.562 C 79.477 43.562 80.082 43.620 80.573 43.735 C 81.065 43.850 81.462 44.013 81.764 44.224 C 82.066 44.434 82.283 44.691 82.413 44.993 C 82.544 45.290 82.610 45.621 82.610 45.985 C 82.610 46.301 82.562 46.601 82.467 46.883 C 82.377 47.166 82.240 47.423 82.055 47.653 C 81.870 47.883 81.638 48.082 81.358 48.249 C 81.083 48.412 80.758 48.537 80.384 48.623 C 80.695 48.729 80.950 48.841 81.148 48.990 C 81.351 49.138 81.514 49.321 81.635 49.536 C 81.762 49.752 81.859 49.999 81.926 50.277 C 81.998 50.550 82.062 50.852 82.116 51.182 C 82.170 51.523 82.217 51.834 82.258 52.117 C 82.303 52.395 82.361 52.637 82.434 52.843 C 82.506 53.044 82.603 53.203 82.725 53.318 C 82.851 53.428 83.025 53.483 83.245 53.483 C 83.286 53.483 83.342 53.481 83.415 53.476 C 83.491 53.471 83.575 53.461 83.665 53.447 C 83.665 53.632 83.665 53.816 83.665 54.001 C 83.588 54.020 83.505 54.037 83.415 54.051 C 83.324 54.065 83.232 54.075 83.137 54.080 C 83.047 54.089 82.957 54.094 82.867 54.094 C 82.781 54.099 82.704 54.101 82.637 54.101 C 82.244 54.101 81.935 54.058 81.710 53.972 C 81.489 53.881 81.317 53.742 81.196 53.555 C 81.078 53.368 80.995 53.133 80.945 52.850 C 80.896 52.568 80.848 52.232 80.803 51.844 C 80.736 51.278 80.668 50.804 80.600 50.420 C 80.533 50.037 80.438 49.730 80.316 49.500 C 80.194 49.265 80.030 49.100 79.822 49.004 C 79.615 48.904 79.333 48.853 78.977 48.853 C 78.553 48.853 78.129 48.853 77.705 48.853 C 77.705 50.380 77.705 51.906 77.705 53.433 C 78.178 53.433 78.652 53.433 79.125 53.433 C 79.125 53.624 79.125 53.816 79.125 54.008 C 77.761 54.008 76.397 54.008 75.032 54.008 C 75.032 53.816 75.032 53.624 75.032 53.433 C 75.483 53.433 75.934 53.433 76.385 53.433 C 76.385 50.334 76.385 47.236 76.385 44.137 C 75.934 44.137 75.483 44.137 75.032 44.137 C 75.032 43.946 75.032 43.754 75.032 43.562 M 80.384 48.623 C 80.384 48.633 80.384 48.642 80.384 48.652 Z"/>
<path fill="#ffffff" fill-rule="evenodd" stroke="none" d="M 87.426 44.137 C 87.426 47.236 87.426 50.334 87.426 53.433 C 87.877 53.433 88.328 53.433 88.780 53.433 C 88.780 53.624 88.780 53.816 88.780 54.008 C 87.438 54.008 86.096 54.008 84.754 54.008 C 84.754 53.816 84.754 53.624 84.754 53.433 C 85.205 53.433 85.656 53.433 86.107 53.433 C 86.107 50.334 86.107 47.236 86.107 44.137 C 85.656 44.137 85.205 44.137 84.754 44.137 C 84.754 43.946 84.754 43.754 84.754 43.562 C 86.096 43.562 87.438 43.562 88.780 43.562 C 88.780 43.754 88.780 43.946 88.780 44.137 C 88.328 44.137 87.877 44.137 87.426 44.137 Z"/>
<path fill="#ffffff" fill-rule="evenodd" stroke="none" d="M 98.393 54.116 C 98.213 54.116 98.032 54.116 97.852 54.116 C 95.901 50.902 93.952 47.688 92.000 44.475 C 91.989 44.478 91.977 44.480 91.966 44.482 C 91.967 47.466 91.966 50.449 91.966 53.433 C 92.372 53.433 92.778 53.433 93.184 53.433 C 93.184 53.624 93.184 53.816 93.184 54.008 C 92.124 54.008 91.064 54.008 90.004 54.008 C 90.004 53.816 90.004 53.624 90.004 53.433 C 90.455 53.433 90.906 53.433 91.357 53.433 C 91.357 50.334 91.357 47.236 91.357 44.137 C 90.906 44.137 90.455 44.137 90.004 44.137 C 90.004 43.946 90.004 43.754 90.004 43.562 C 91.012 43.562 92.020 43.562 93.028 43.562 C 94.602 46.155 96.175 48.748 97.750 51.341 C 97.762 51.338 97.773 51.336 97.784 51.333 C 97.783 48.935 97.784 46.536 97.784 44.137 C 97.333 44.137 96.882 44.137 96.431 44.137 C 96.431 43.946 96.431 43.754 96.431 43.562 C 97.536 43.562 98.641 43.562 99.746 43.562 C 99.746 43.754 99.746 43.946 99.746 44.137 C 99.295 44.137 98.844 44.137 98.393 44.137 C 98.393 47.463 98.393 50.790 98.393 54.116 Z"/>
<path fill="#ffffff" fill-rule="evenodd" stroke="none" d="M 108.798 53.584 C 108.582 53.699 108.347 53.799 108.095 53.886 C 107.842 53.972 107.587 54.041 107.330 54.094 C 107.073 54.147 106.818 54.185 106.566 54.209 C 106.313 54.238 106.079 54.252 105.862 54.252 C 105.159 54.252 104.529 54.128 103.975 53.878 C 103.420 53.629 102.948 53.274 102.561 52.814 C 102.177 52.350 101.884 51.786 101.681 51.125 C 101.478 50.464 101.377 49.718 101.377 48.889 C 101.377 48.041 101.487 47.274 101.708 46.589 C 101.929 45.903 102.245 45.319 102.655 44.835 C 103.066 44.346 103.560 43.972 104.137 43.713 C 104.719 43.450 105.368 43.318 106.085 43.318 C 106.496 43.318 106.933 43.361 107.398 43.447 C 107.862 43.529 108.304 43.641 108.724 43.785 C 108.751 44.660 108.778 45.534 108.805 46.409 C 108.647 46.409 108.489 46.409 108.331 46.409 C 108.291 45.887 108.201 45.463 108.061 45.137 C 107.921 44.806 107.747 44.550 107.540 44.367 C 107.333 44.185 107.096 44.061 106.830 43.994 C 106.568 43.926 106.291 43.893 105.997 43.893 C 105.691 43.893 105.400 43.922 105.125 43.979 C 104.854 44.037 104.602 44.137 104.367 44.281 C 104.132 44.425 103.920 44.617 103.731 44.856 C 103.546 45.096 103.386 45.400 103.251 45.769 C 103.120 46.138 103.018 46.577 102.946 47.085 C 102.879 47.588 102.845 48.175 102.845 48.846 C 102.845 49.507 102.876 50.087 102.939 50.586 C 103.007 51.079 103.102 51.504 103.224 51.858 C 103.350 52.213 103.501 52.508 103.677 52.743 C 103.857 52.977 104.058 53.162 104.279 53.296 C 104.500 53.430 104.741 53.526 105.003 53.584 C 105.264 53.636 105.542 53.663 105.835 53.663 C 106.124 53.663 106.406 53.651 106.681 53.627 C 106.960 53.598 107.227 53.533 107.479 53.433 C 107.479 52.371 107.479 51.310 107.479 50.248 C 106.983 50.248 106.487 50.248 105.991 50.248 C 105.991 50.056 105.991 49.865 105.991 49.673 C 107.332 49.673 108.674 49.673 110.016 49.673 C 110.016 49.865 110.016 50.056 110.016 50.248 C 109.610 50.248 109.204 50.248 108.798 50.248 C 108.798 51.360 108.798 52.472 108.798 53.584 Z"/>
<path fill="#ffffff" fill-rule="evenodd" stroke="none" d="M 122.011 48.659 C 121.359 50.478 120.708 52.297 120.056 54.116 C 119.882 54.116 119.709 54.116 119.535 54.116 C 118.412 50.790 117.289 47.463 116.166 44.137 C 115.719 44.137 115.273 44.137 114.826 44.137 C 114.826 43.946 114.826 43.754 114.826 43.562 C 116.141 43.562 117.456 43.562 118.770 43.562 C 118.770 43.754 118.770 43.946 118.770 44.137 C 118.369 44.137 117.968 44.137 117.566 44.137 C 118.437 46.706 119.307 49.275 120.178 51.844 C 120.187 51.844 120.196 51.844 120.205 51.844 C 120.703 50.464 121.201 49.083 121.700 47.703 C 121.298 46.515 120.897 45.326 120.496 44.137 C 120.117 44.137 119.738 44.137 119.359 44.137 C 119.359 43.946 119.359 43.754 119.359 43.562 C 120.674 43.562 121.989 43.562 123.303 43.562 C 123.303 43.754 123.303 43.946 123.303 44.137 C 122.834 44.137 122.365 44.137 121.896 44.137 C 122.766 46.706 123.637 49.275 124.507 51.844 C 124.516 51.844 124.525 51.844 124.535 51.844 C 125.461 49.275 126.388 46.706 127.315 44.137 C 126.864 44.137 126.413 44.137 125.962 44.137 C 125.962 43.946 125.962 43.754 125.962 43.562 C 127.038 43.562 128.113 43.562 129.189 43.562 C 129.189 43.754 129.189 43.946 129.189 44.137 C 128.783 44.137 128.377 44.137 127.971 44.137 C 126.776 47.463 125.581 50.790 124.386 54.116 C 124.212 54.116 124.038 54.116 123.865 54.116 C 123.256 52.297 122.647 50.478 122.038 48.659 C 122.029 48.659 122.020 48.659 122.011 48.659 Z"/>
<path fill="#ffffff" fill-rule="evenodd" stroke="none" d="M 132.464 48.300 C 132.759 48.300 133.054 48.300 133.350 48.300 C 133.652 48.300 133.905 48.288 134.108 48.264 C 134.311 48.240 134.473 48.173 134.595 48.063 C 134.721 47.948 134.816 47.773 134.879 47.538 C 134.942 47.298 134.987 46.963 135.014 46.531 C 135.174 46.531 135.334 46.531 135.495 46.531 C 135.494 47.950 135.494 49.369 135.495 50.787 C 135.334 50.787 135.174 50.787 135.014 50.787 C 134.992 50.351 134.953 50.008 134.899 49.759 C 134.845 49.505 134.757 49.313 134.635 49.184 C 134.513 49.055 134.349 48.973 134.141 48.940 C 133.938 48.906 133.675 48.889 133.350 48.889 C 133.054 48.889 132.759 48.889 132.464 48.889 C 132.464 50.404 132.464 51.918 132.464 53.433 C 133.061 53.433 133.659 53.433 134.256 53.433 C 134.608 53.433 134.917 53.418 135.183 53.390 C 135.449 53.361 135.682 53.308 135.880 53.231 C 136.079 53.155 136.248 53.047 136.387 52.908 C 136.532 52.769 136.656 52.589 136.760 52.369 C 136.863 52.148 136.951 51.880 137.023 51.564 C 137.096 51.247 137.163 50.873 137.226 50.442 C 137.384 50.442 137.542 50.442 137.700 50.442 C 137.655 51.631 137.610 52.819 137.565 54.008 C 134.974 54.008 132.382 54.008 129.791 54.008 C 129.791 53.816 129.791 53.624 129.791 53.433 C 130.242 53.433 130.693 53.433 131.144 53.433 C 131.144 50.334 131.144 47.236 131.144 44.137 C 130.693 44.137 130.242 44.137 129.791 44.137 C 129.791 43.946 129.791 43.754 129.791 43.562 C 132.326 43.562 134.861 43.562 137.396 43.562 C 137.441 44.523 137.486 45.484 137.531 46.445 C 137.373 46.445 137.215 46.445 137.057 46.445 C 136.990 45.966 136.906 45.578 136.807 45.280 C 136.708 44.978 136.568 44.744 136.387 44.576 C 136.212 44.403 135.979 44.288 135.691 44.231 C 135.407 44.169 135.046 44.137 134.608 44.137 C 133.893 44.137 133.178 44.137 132.464 44.137 C 132.464 45.525 132.464 46.912 132.464 48.300 Z"/>
<path fill="#ffffff" fill-rule="evenodd" stroke="none" d="M 142.138 44.137 C 142.138 45.525 142.138 46.912 142.138 48.300 C 142.404 48.300 142.670 48.300 142.936 48.300 C 143.473 48.300 143.924 48.264 144.289 48.192 C 144.655 48.120 144.948 47.998 145.169 47.825 C 145.390 47.653 145.548 47.425 145.643 47.142 C 145.737 46.855 145.785 46.498 145.785 46.071 C 145.785 45.745 145.753 45.462 145.690 45.223 C 145.627 44.978 145.509 44.777 145.338 44.619 C 145.167 44.456 144.928 44.336 144.621 44.260 C 144.319 44.178 143.924 44.137 143.437 44.137 C 143.004 44.137 142.571 44.137 142.138 44.137 M 142.138 48.875 C 142.138 50.394 142.138 51.913 142.138 53.433 C 142.621 53.433 143.103 53.433 143.586 53.433 C 144.059 53.433 144.456 53.394 144.777 53.318 C 145.101 53.236 145.361 53.104 145.555 52.922 C 145.753 52.740 145.895 52.503 145.981 52.211 C 146.067 51.913 146.109 51.547 146.109 51.111 C 146.109 50.718 146.069 50.382 145.988 50.104 C 145.911 49.821 145.764 49.589 145.548 49.407 C 145.336 49.225 145.040 49.090 144.662 49.004 C 144.287 48.918 143.800 48.875 143.200 48.875 C 142.846 48.875 142.492 48.875 142.138 48.875 M 145.081 48.508 C 145.081 48.518 145.081 48.527 145.081 48.537 C 145.464 48.408 145.791 48.273 146.062 48.106 C 146.337 47.938 146.560 47.744 146.732 47.523 C 146.908 47.303 147.036 47.066 147.117 46.812 C 147.199 46.553 147.239 46.284 147.239 46.007 C 147.239 45.661 147.174 45.340 147.043 45.043 C 146.917 44.746 146.707 44.487 146.414 44.267 C 146.121 44.046 145.737 43.874 145.264 43.749 C 144.790 43.624 144.211 43.562 143.525 43.562 C 142.172 43.562 140.819 43.562 139.466 43.562 C 139.466 43.754 139.466 43.946 139.466 44.137 C 139.917 44.137 140.368 44.137 140.819 44.137 C 140.819 47.236 140.819 50.334 140.819 53.433 C 140.368 53.433 139.917 53.433 139.466 53.433 C 139.466 53.624 139.466 53.816 139.466 54.008 C 140.875 54.008 142.285 54.008 143.694 54.008 C 144.438 54.008 145.058 53.926 145.555 53.763 C 146.051 53.596 146.450 53.375 146.752 53.102 C 147.054 52.829 147.268 52.517 147.395 52.167 C 147.521 51.813 147.584 51.448 147.584 51.075 C 147.584 50.754 147.539 50.454 147.449 50.176 C 147.359 49.898 147.212 49.649 147.009 49.428 C 146.811 49.208 146.551 49.023 146.231 48.875 C 145.915 48.721 145.532 48.609 145.081 48.537 Z"/>
<path fill="#ffffff" fill-rule="evenodd" stroke="none" d="M 155.919 44.137 C 155.919 47.236 155.919 50.334 155.919 53.433 C 156.327 53.433 156.735 53.433 157.144 53.433 C 157.838 53.433 158.413 53.361 158.869 53.217 C 159.329 53.073 159.692 52.822 159.958 52.462 C 160.224 52.103 160.411 51.616 160.520 51.003 C 160.628 50.389 160.682 49.613 160.682 48.674 C 160.682 48.161 160.664 47.691 160.628 47.265 C 160.596 46.838 160.535 46.457 160.445 46.121 C 160.355 45.786 160.229 45.494 160.066 45.244 C 159.908 44.995 159.703 44.789 159.451 44.626 C 159.203 44.463 158.900 44.341 158.544 44.260 C 158.188 44.178 157.768 44.137 157.286 44.137 C 156.830 44.137 156.375 44.137 155.919 44.137 M 157.232 54.008 C 155.903 54.008 154.575 54.008 153.247 54.008 C 153.247 53.816 153.247 53.624 153.247 53.433 C 153.698 53.433 154.149 53.433 154.600 53.433 C 154.600 50.334 154.600 47.236 154.600 44.137 C 154.149 44.137 153.698 44.137 153.247 44.137 C 153.247 43.946 153.247 43.754 153.247 43.562 C 154.609 43.562 155.971 43.562 157.333 43.562 C 158.244 43.562 159.006 43.682 159.620 43.922 C 160.238 44.161 160.734 44.504 161.108 44.950 C 161.482 45.391 161.749 45.925 161.907 46.553 C 162.069 47.181 162.150 47.883 162.150 48.659 C 162.150 49.110 162.121 49.555 162.062 49.996 C 162.008 50.432 161.911 50.849 161.771 51.247 C 161.631 51.640 161.442 52.007 161.203 52.347 C 160.968 52.683 160.668 52.975 160.303 53.224 C 159.938 53.469 159.503 53.660 158.997 53.799 C 158.492 53.938 157.904 54.008 157.232 54.008 Z"/>
<path fill="#ffffff" fill-rule="evenodd" stroke="none" d="M 166.588 48.300 C 166.884 48.300 167.179 48.300 167.474 48.300 C 167.777 48.300 168.029 48.288 168.232 48.264 C 168.435 48.240 168.597 48.173 168.719 48.063 C 168.846 47.948 168.940 47.773 169.003 47.538 C 169.067 47.298 169.112 46.963 169.139 46.531 C 169.299 46.531 169.459 46.531 169.619 46.531 C 169.619 47.950 169.619 49.369 169.619 50.787 C 169.459 50.787 169.299 50.787 169.139 50.787 C 169.116 50.351 169.078 50.008 169.024 49.759 C 168.970 49.505 168.882 49.313 168.760 49.184 C 168.638 49.055 168.473 48.973 168.266 48.940 C 168.063 48.906 167.799 48.889 167.474 48.889 C 167.179 48.889 166.884 48.889 166.588 48.889 C 166.588 50.404 166.588 51.918 166.588 53.433 C 167.186 53.433 167.783 53.433 168.381 53.433 C 168.733 53.433 169.042 53.418 169.308 53.390 C 169.574 53.361 169.806 53.308 170.005 53.231 C 170.203 53.155 170.372 53.047 170.512 52.908 C 170.656 52.769 170.780 52.589 170.884 52.369 C 170.988 52.148 171.076 51.880 171.148 51.564 C 171.220 51.247 171.288 50.873 171.351 50.442 C 171.509 50.442 171.667 50.442 171.825 50.442 C 171.779 51.631 171.734 52.819 171.689 54.008 C 169.098 54.008 166.507 54.008 163.916 54.008 C 163.916 53.816 163.916 53.624 163.916 53.433 C 164.367 53.433 164.818 53.433 165.269 53.433 C 165.269 50.334 165.269 47.236 165.269 44.137 C 164.818 44.137 164.367 44.137 163.916 44.137 C 163.916 43.946 163.916 43.754 163.916 43.562 C 166.451 43.562 168.985 43.562 171.520 43.562 C 171.565 44.523 171.610 45.484 171.655 46.445 C 171.497 46.445 171.340 46.445 171.182 46.445 C 171.114 45.966 171.031 45.578 170.932 45.280 C 170.832 44.978 170.692 44.744 170.512 44.576 C 170.336 44.403 170.104 44.288 169.815 44.231 C 169.531 44.169 169.170 44.137 168.733 44.137 C 168.018 44.137 167.303 44.137 166.588 44.137 C 166.588 45.525 166.588 46.912 166.588 48.300 Z"/>
<path fill="#ffffff" fill-rule="evenodd" stroke="none" d="M 178.313 51.844 C 178.322 51.844 178.331 51.844 178.340 51.844 C 179.244 49.275 180.148 46.706 181.053 44.137 C 180.601 44.137 180.150 44.137 179.699 44.137 C 179.699 43.946 179.699 43.754 179.699 43.562 C 180.775 43.562 181.851 43.562 182.927 43.562 C 182.926 43.754 182.926 43.946 182.927 44.137 C 182.521 44.137 182.115 44.137 181.709 44.137 C 180.536 47.463 179.363 50.790 178.191 54.116 C 178.013 54.116 177.834 54.116 177.656 54.116 C 176.556 50.790 175.455 47.463 174.355 44.137 C 173.908 44.137 173.462 44.137 173.015 44.137 C 173.015 43.946 173.015 43.754 173.015 43.562 C 174.402 43.562 175.789 43.562 177.176 43.562 C 177.176 43.754 177.176 43.946 177.176 44.137 C 176.707 44.137 176.238 44.137 175.769 44.137 C 176.617 46.706 177.465 49.275 178.313 51.844 Z"/>
<path fill="#ffffff" fill-rule="evenodd" stroke="none" d="M 186.248 48.300 C 186.544 48.300 186.839 48.300 187.135 48.300 C 187.437 48.300 187.689 48.288 187.892 48.264 C 188.095 48.240 188.258 48.173 188.379 48.063 C 188.506 47.948 188.600 47.773 188.664 47.538 C 188.727 47.298 188.772 46.963 188.799 46.531 C 188.959 46.531 189.119 46.531 189.279 46.531 C 189.279 47.950 189.279 49.369 189.279 50.787 C 189.119 50.787 188.959 50.787 188.799 50.787 C 188.776 50.351 188.738 50.008 188.684 49.759 C 188.630 49.505 188.542 49.313 188.420 49.184 C 188.298 49.055 188.134 48.973 187.926 48.940 C 187.723 48.906 187.459 48.889 187.135 48.889 C 186.839 48.889 186.544 48.889 186.248 48.889 C 186.248 50.404 186.248 51.918 186.248 53.433 C 186.846 53.433 187.443 53.433 188.041 53.433 C 188.393 53.433 188.702 53.418 188.968 53.390 C 189.234 53.361 189.466 53.308 189.665 53.231 C 189.863 53.155 190.032 53.047 190.172 52.908 C 190.317 52.769 190.441 52.589 190.544 52.369 C 190.648 52.148 190.736 51.880 190.808 51.564 C 190.880 51.247 190.948 50.873 191.011 50.442 C 191.169 50.442 191.327 50.442 191.485 50.442 C 191.440 51.631 191.394 52.819 191.349 54.008 C 188.758 54.008 186.167 54.008 183.576 54.008 C 183.576 53.816 183.576 53.624 183.576 53.433 C 184.027 53.433 184.478 53.433 184.929 53.433 C 184.929 50.334 184.929 47.236 184.929 44.137 C 184.478 44.137 184.027 44.137 183.576 44.137 C 183.576 43.946 183.576 43.754 183.576 43.562 C 186.111 43.562 188.645 43.562 191.180 43.562 C 191.225 44.523 191.270 45.484 191.316 46.445 C 191.158 46.445 191.000 46.445 190.842 46.445 C 190.774 45.966 190.691 45.578 190.592 45.280 C 190.492 44.978 190.353 44.744 190.172 44.576 C 189.996 44.403 189.764 44.288 189.475 44.231 C 189.191 44.169 188.830 44.137 188.393 44.137 C 187.678 44.137 186.963 44.137 186.248 44.137 C 186.248 45.525 186.248 46.912 186.248 48.300 Z"/>
<path fill="#ffffff" fill-rule="evenodd" stroke="none" d="M 197.513 53.433 C 197.864 53.433 198.173 53.418 198.439 53.390 C 198.706 53.361 198.938 53.308 199.136 53.231 C 199.339 53.150 199.513 53.040 199.657 52.901 C 199.802 52.757 199.926 52.572 200.029 52.347 C 200.133 52.122 200.221 51.849 200.293 51.528 C 200.370 51.202 200.438 50.816 200.496 50.370 C 200.654 50.370 200.812 50.370 200.970 50.370 C 200.920 51.583 200.870 52.795 200.821 54.008 C 198.297 54.008 195.774 54.008 193.250 54.008 C 193.250 53.816 193.250 53.624 193.250 53.433 C 193.701 53.433 194.153 53.433 194.604 53.433 C 194.604 50.334 194.604 47.236 194.604 44.137 C 194.153 44.137 193.701 44.137 193.250 44.137 C 193.250 43.946 193.250 43.754 193.250 43.562 C 194.592 43.562 195.934 43.562 197.276 43.562 C 197.276 43.754 197.276 43.946 197.276 44.137 C 196.825 44.137 196.374 44.137 195.923 44.137 C 195.923 47.236 195.923 50.334 195.923 53.433 C 196.453 53.433 196.983 53.433 197.513 53.433 Z"/>
<path fill="#ffffff" fill-rule="evenodd" stroke="none" d="M 204.339 47.063 C 204.271 47.571 204.237 48.163 204.237 48.839 C 204.237 49.500 204.269 50.080 204.332 50.579 C 204.400 51.072 204.492 51.499 204.609 51.858 C 204.731 52.213 204.878 52.508 205.049 52.743 C 205.221 52.977 205.412 53.164 205.624 53.303 C 205.836 53.442 206.066 53.540 206.314 53.598 C 206.562 53.651 206.824 53.677 207.099 53.677 C 207.374 53.677 207.636 53.651 207.884 53.598 C 208.137 53.540 208.371 53.442 208.588 53.303 C 208.804 53.159 209.000 52.968 209.176 52.728 C 209.352 52.488 209.501 52.187 209.623 51.822 C 209.749 51.453 209.846 51.017 209.914 50.514 C 209.981 50.006 210.015 49.414 210.015 48.738 C 210.015 48.077 209.981 47.499 209.914 47.006 C 209.850 46.507 209.758 46.078 209.636 45.719 C 209.519 45.359 209.375 45.062 209.203 44.827 C 209.032 44.593 208.840 44.406 208.628 44.267 C 208.421 44.128 208.193 44.032 207.945 43.979 C 207.697 43.922 207.435 43.893 207.160 43.893 C 206.885 43.893 206.621 43.922 206.369 43.979 C 206.116 44.037 205.881 44.135 205.665 44.274 C 205.448 44.413 205.252 44.605 205.076 44.849 C 204.900 45.089 204.749 45.391 204.623 45.755 C 204.501 46.119 204.407 46.555 204.339 47.063 M 203.074 51.118 C 202.871 50.452 202.769 49.706 202.769 48.882 C 202.769 48.024 202.878 47.253 203.094 46.567 C 203.315 45.882 203.622 45.300 204.014 44.820 C 204.407 44.336 204.873 43.965 205.415 43.706 C 205.960 43.447 206.558 43.318 207.207 43.318 C 207.848 43.318 208.430 43.445 208.953 43.699 C 209.481 43.948 209.932 44.305 210.306 44.770 C 210.680 45.235 210.969 45.798 211.172 46.459 C 211.379 47.121 211.483 47.861 211.483 48.681 C 211.483 49.486 211.382 50.231 211.179 50.916 C 210.980 51.597 210.692 52.184 210.313 52.678 C 209.934 53.171 209.469 53.557 208.919 53.835 C 208.373 54.113 207.755 54.252 207.065 54.252 C 206.416 54.252 205.827 54.128 205.300 53.878 C 204.772 53.629 204.321 53.272 203.947 52.807 C 203.572 52.342 203.281 51.779 203.074 51.118 Z"/>
<path fill="#ffffff" fill-rule="evenodd" stroke="none" d="M 215.921 44.137 C 215.921 45.793 215.921 47.449 215.921 49.105 C 216.199 49.105 216.476 49.105 216.753 49.105 C 217.272 49.105 217.707 49.064 218.059 48.983 C 218.415 48.896 218.700 48.753 218.912 48.551 C 219.124 48.350 219.275 48.084 219.365 47.753 C 219.460 47.418 219.507 47.001 219.507 46.503 C 219.507 46.090 219.471 45.736 219.399 45.439 C 219.331 45.141 219.200 44.897 219.006 44.705 C 218.812 44.509 218.542 44.365 218.194 44.274 C 217.852 44.183 217.407 44.137 216.862 44.137 C 216.548 44.137 216.235 44.137 215.921 44.137 M 213.249 43.562 C 214.480 43.562 215.711 43.562 216.943 43.562 C 217.691 43.562 218.321 43.634 218.830 43.778 C 219.340 43.922 219.750 44.123 220.062 44.382 C 220.377 44.636 220.603 44.943 220.738 45.302 C 220.878 45.657 220.948 46.047 220.948 46.474 C 220.948 46.876 220.885 47.269 220.758 47.653 C 220.632 48.036 220.411 48.379 220.095 48.681 C 219.784 48.983 219.365 49.225 218.837 49.407 C 218.314 49.589 217.653 49.680 216.855 49.680 C 216.544 49.680 216.232 49.680 215.921 49.680 C 215.921 50.931 215.921 52.182 215.921 53.433 C 216.395 53.433 216.868 53.433 217.342 53.433 C 217.342 53.624 217.342 53.816 217.342 54.008 C 215.978 54.008 214.613 54.008 213.249 54.008 C 213.249 53.816 213.249 53.624 213.249 53.433 C 213.700 53.433 214.151 53.433 214.602 53.433 C 214.602 50.334 214.602 47.236 214.602 44.137 C 214.151 44.137 213.700 44.137 213.249 44.137 C 213.249 43.946 213.249 43.754 213.249 43.562 Z"/>
<path fill="#ffffff" fill-rule="evenodd" stroke="none" d="M 224.980 48.300 C 225.275 48.300 225.571 48.300 225.866 48.300 C 226.169 48.300 226.421 48.288 226.624 48.264 C 226.827 48.240 226.989 48.173 227.111 48.063 C 227.237 47.948 227.332 47.773 227.395 47.538 C 227.458 47.298 227.504 46.963 227.531 46.531 C 227.691 46.531 227.851 46.531 228.011 46.531 C 228.011 47.950 228.011 49.369 228.011 50.787 C 227.851 50.787 227.691 50.787 227.531 50.787 C 227.508 50.351 227.470 50.008 227.416 49.759 C 227.362 49.505 227.274 49.313 227.152 49.184 C 227.030 49.055 226.865 48.973 226.658 48.940 C 226.455 48.906 226.191 48.889 225.866 48.889 C 225.571 48.889 225.275 48.889 224.980 48.889 C 224.980 50.404 224.980 51.918 224.980 53.433 C 225.578 53.433 226.175 53.433 226.773 53.433 C 227.125 53.433 227.434 53.418 227.700 53.390 C 227.966 53.361 228.198 53.308 228.397 53.231 C 228.595 53.155 228.764 53.047 228.904 52.908 C 229.048 52.769 229.172 52.589 229.276 52.369 C 229.380 52.148 229.468 51.880 229.540 51.564 C 229.612 51.247 229.680 50.873 229.743 50.442 C 229.901 50.442 230.058 50.442 230.216 50.442 C 230.171 51.631 230.126 52.819 230.081 54.008 C 227.490 54.008 224.899 54.008 222.308 54.008 C 222.308 53.816 222.308 53.624 222.308 53.433 C 222.759 53.433 223.210 53.433 223.661 53.433 C 223.661 50.334 223.661 47.236 223.661 44.137 C 223.210 44.137 222.759 44.137 222.308 44.137 C 222.308 43.946 222.308 43.754 222.308 43.562 C 224.842 43.562 227.377 43.562 229.912 43.562 C 229.957 44.523 230.002 45.484 230.047 46.445 C 229.889 46.445 229.732 46.445 229.574 46.445 C 229.506 45.966 229.423 45.578 229.323 45.280 C 229.224 44.978 229.084 44.744 228.904 44.576 C 228.728 44.403 228.496 44.288 228.207 44.231 C 227.923 44.169 227.562 44.137 227.125 44.137 C 226.410 44.137 225.695 44.137 224.980 44.137 C 224.980 45.525 224.980 46.912 224.980 48.300 Z"/>
<path fill="#ffffff" fill-rule="evenodd" stroke="none" d="M 234.655 44.137 C 234.655 45.518 234.655 46.898 234.655 48.278 C 234.954 48.278 235.254 48.278 235.554 48.278 C 236.041 48.278 236.447 48.235 236.772 48.149 C 237.101 48.062 237.365 47.928 237.564 47.746 C 237.767 47.559 237.909 47.324 237.990 47.042 C 238.076 46.754 238.118 46.409 238.118 46.007 C 238.118 45.671 238.085 45.386 238.017 45.151 C 237.949 44.911 237.823 44.717 237.638 44.569 C 237.458 44.420 237.205 44.312 236.880 44.245 C 236.560 44.173 236.143 44.137 235.629 44.137 C 235.304 44.137 234.979 44.137 234.655 44.137 M 231.982 43.562 C 233.225 43.562 234.467 43.562 235.710 43.562 C 236.427 43.562 237.031 43.620 237.523 43.735 C 238.015 43.850 238.412 44.013 238.714 44.224 C 239.016 44.434 239.232 44.691 239.363 44.993 C 239.494 45.290 239.559 45.621 239.559 45.985 C 239.559 46.301 239.512 46.601 239.417 46.883 C 239.327 47.166 239.190 47.423 239.005 47.653 C 238.820 47.883 238.587 48.082 238.308 48.249 C 238.033 48.412 237.708 48.537 237.334 48.623 C 237.645 48.729 237.900 48.841 238.098 48.990 C 238.301 49.138 238.463 49.321 238.585 49.536 C 238.712 49.752 238.809 49.999 238.876 50.277 C 238.948 50.550 239.012 50.852 239.066 51.182 C 239.120 51.523 239.167 51.834 239.208 52.117 C 239.253 52.395 239.311 52.637 239.384 52.843 C 239.456 53.044 239.553 53.203 239.674 53.318 C 239.801 53.428 239.974 53.483 240.195 53.483 C 240.236 53.483 240.292 53.481 240.365 53.476 C 240.441 53.471 240.525 53.461 240.615 53.447 C 240.615 53.632 240.615 53.816 240.615 54.001 C 240.538 54.020 240.455 54.037 240.365 54.051 C 240.274 54.065 240.182 54.075 240.087 54.080 C 239.997 54.089 239.907 54.094 239.817 54.094 C 239.731 54.099 239.654 54.101 239.586 54.101 C 239.194 54.101 238.885 54.058 238.660 53.972 C 238.439 53.881 238.267 53.742 238.146 53.555 C 238.028 53.368 237.945 53.133 237.895 52.850 C 237.846 52.568 237.798 52.232 237.753 51.844 C 237.685 51.278 237.618 50.804 237.550 50.420 C 237.482 50.037 237.388 49.730 237.266 49.500 C 237.144 49.265 236.980 49.100 236.772 49.004 C 236.565 48.904 236.283 48.853 235.926 48.853 C 235.502 48.853 235.079 48.853 234.655 48.853 C 234.655 50.380 234.655 51.906 234.655 53.433 C 235.128 53.433 235.602 53.433 236.075 53.433 C 236.075 53.624 236.075 53.816 236.075 54.008 C 234.711 54.008 233.347 54.008 231.982 54.008 C 231.982 53.816 231.982 53.624 231.982 53.433 C 232.433 53.433 232.884 53.433 233.335 53.433 C 233.335 50.334 233.335 47.236 233.335 44.137 C 232.884 44.137 232.433 44.137 231.982 44.137 C 231.982 43.946 231.982 43.754 231.982 43.562 M 237.334 48.623 C 237.334 48.633 237.334 48.642 237.334 48.652 Z"/>
</g>
<g id="">
<path fill="#ffffff" fill-rule="evenodd" stroke="none" d="M 33.832 12.221 C 33.832 20.527 33.832 28.832 33.832 37.138 C 35.117 37.138 36.402 37.138 37.687 37.138 C 37.686 37.652 37.686 38.165 37.687 38.679 C 33.864 38.679 30.043 38.679 26.221 38.679 C 26.221 38.165 26.221 37.652 26.221 37.138 C 27.505 37.138 28.790 37.138 30.075 37.138 C 30.075 28.832 30.075 20.527 30.075 12.221 C 28.790 12.222 27.505 12.222 26.221 12.221 C 26.221 11.708 26.221 11.194 26.221 10.680 C 30.043 10.680 33.864 10.680 37.687 10.680 C 37.686 11.194 37.686 11.708 37.687 12.221 C 36.402 12.222 35.117 12.222 33.832 12.221 Z"/>
<path fill="#ffffff" fill-rule="evenodd" stroke="none" d="M 42.812 10.680 C 43.133 10.654 43.455 10.635 43.776 10.622 C 44.097 10.596 44.418 10.583 44.739 10.583 C 45.061 10.583 45.375 10.596 45.684 10.622 C 46.005 10.635 46.332 10.654 46.666 10.680 C 46.216 14.174 45.766 17.669 45.317 21.163 C 45.125 21.201 44.932 21.221 44.739 21.221 C 44.547 21.221 44.354 21.201 44.161 21.163 C 43.712 17.669 43.262 14.174 42.812 10.680 Z"/>
<path fill="#ffffff" fill-rule="evenodd" stroke="none" d="M 78.327 37.138 C 78.327 28.999 78.327 20.861 78.327 12.723 C 78.295 12.723 78.263 12.723 78.231 12.723 C 74.890 21.471 71.550 30.220 68.210 38.968 C 67.703 38.968 67.195 38.968 66.688 38.968 C 63.553 30.233 60.419 21.497 57.284 12.761 C 57.252 12.761 57.220 12.761 57.188 12.761 C 57.188 20.887 57.188 29.012 57.188 37.138 C 58.344 37.138 59.500 37.138 60.656 37.138 C 60.656 37.652 60.656 38.165 60.656 38.679 C 57.637 38.679 54.618 38.679 51.600 38.679 C 51.600 38.165 51.600 37.652 51.600 37.138 C 52.884 37.138 54.169 37.138 55.454 37.138 C 55.454 28.832 55.454 20.527 55.454 12.221 C 54.169 12.222 52.884 12.222 51.600 12.221 C 51.600 11.708 51.600 11.194 51.600 10.680 C 54.573 10.680 57.547 10.680 60.521 10.680 C 63.200 18.112 65.878 25.544 68.557 32.975 C 68.583 32.975 68.609 32.975 68.634 32.975 C 71.486 25.544 74.338 18.112 77.190 10.680 C 80.106 10.680 83.022 10.680 85.939 10.680 C 85.939 11.194 85.939 11.708 85.939 12.221 C 84.654 12.222 83.369 12.222 82.085 12.221 C 82.085 20.527 82.085 28.832 82.085 37.138 C 83.369 37.138 84.654 37.138 85.939 37.138 C 85.939 37.652 85.939 38.165 85.939 38.679 C 82.245 38.679 78.552 38.679 74.859 38.679 C 74.858 38.165 74.858 37.652 74.859 37.138 C 76.014 37.138 77.171 37.138 78.327 37.138 Z"/>
<path fill="#ffffff" fill-rule="evenodd" stroke="none" d="M 108.331 29.622 C 108.331 30.727 108.376 31.768 108.466 32.744 C 108.569 33.721 108.832 34.575 109.256 35.307 C 109.693 36.039 110.348 36.624 111.221 37.061 C 112.108 37.485 113.335 37.696 114.902 37.696 C 116.495 37.696 117.780 37.478 118.756 37.041 C 119.732 36.592 120.484 35.982 121.011 35.211 C 121.550 34.427 121.910 33.509 122.090 32.455 C 122.270 31.389 122.360 30.239 122.360 29.006 C 122.359 23.411 122.359 17.816 122.360 12.221 C 121.075 12.222 119.790 12.222 118.506 12.221 C 118.505 11.708 118.505 11.194 118.506 10.680 C 121.646 10.680 124.788 10.680 127.929 10.680 C 127.929 11.194 127.929 11.708 127.929 12.221 C 126.650 12.222 125.372 12.222 124.094 12.221 C 124.094 17.746 124.094 23.270 124.094 28.794 C 124.094 30.515 123.953 32.031 123.670 33.341 C 123.387 34.652 122.880 35.750 122.148 36.637 C 121.415 37.523 120.426 38.197 119.180 38.660 C 117.934 39.110 116.347 39.334 114.420 39.334 C 112.699 39.334 111.215 39.148 109.969 38.776 C 108.723 38.403 107.701 37.825 106.905 37.041 C 106.108 36.258 105.517 35.262 105.132 34.055 C 104.759 32.834 104.573 31.389 104.573 29.719 C 104.573 23.886 104.573 18.054 104.573 12.221 C 103.289 12.222 102.004 12.222 100.719 12.221 C 100.719 11.708 100.719 11.194 100.719 10.680 C 104.541 10.680 108.363 10.680 112.185 10.680 C 112.185 11.194 112.185 11.708 112.185 12.221 C 110.900 12.222 109.615 12.222 108.331 12.221 C 108.331 18.022 108.331 23.822 108.331 29.622 Z"/>
<path fill="#ffffff" fill-rule="evenodd" stroke="none" d="M 149.839 24.342 C 147.982 29.218 146.126 34.093 144.270 38.968 C 143.775 38.968 143.281 38.968 142.786 38.968 C 139.587 30.053 136.388 21.137 133.189 12.221 C 131.918 12.222 130.646 12.222 129.374 12.221 C 129.374 11.708 129.374 11.194 129.374 10.680 C 133.119 10.680 136.864 10.680 140.608 10.680 C 140.608 11.194 140.608 11.708 140.608 12.221 C 139.465 12.222 138.322 12.222 137.178 12.221 C 139.658 19.107 142.137 25.993 144.617 32.879 C 144.642 32.879 144.668 32.879 144.694 32.879 C 146.113 29.179 147.533 25.479 148.952 21.779 C 147.809 18.594 146.666 15.408 145.523 12.221 C 144.443 12.222 143.364 12.222 142.285 12.221 C 142.285 11.708 142.285 11.194 142.285 10.680 C 146.030 10.680 149.775 10.680 153.520 10.680 C 153.519 11.194 153.519 11.708 153.520 12.221 C 152.183 12.222 150.847 12.222 149.511 12.221 C 151.990 19.108 154.470 25.993 156.950 32.879 C 156.975 32.879 157.001 32.879 157.027 32.879 C 159.667 25.993 162.306 19.107 164.947 12.221 C 163.662 12.222 162.377 12.222 161.093 12.221 C 161.093 11.708 161.093 11.194 161.093 10.680 C 164.156 10.680 167.220 10.680 170.285 10.680 C 170.284 11.194 170.284 11.708 170.285 12.221 C 169.128 12.222 167.972 12.222 166.816 12.221 C 163.411 21.137 160.007 30.053 156.603 38.968 C 156.108 38.968 155.613 38.968 155.119 38.968 C 153.384 34.093 151.650 29.218 149.916 24.342 C 149.890 24.342 149.864 24.342 149.839 24.342 Z"/>
<path fill="#ffffff" fill-rule="evenodd" stroke="none" d="M 179.611 23.379 C 180.453 23.379 181.294 23.379 182.136 23.379 C 182.997 23.379 183.716 23.347 184.294 23.282 C 184.872 23.218 185.335 23.038 185.681 22.743 C 186.041 22.435 186.311 21.966 186.491 21.336 C 186.671 20.694 186.799 19.794 186.876 18.638 C 187.332 18.638 187.788 18.638 188.244 18.638 C 188.244 22.441 188.244 26.244 188.244 30.046 C 187.788 30.046 187.332 30.046 186.876 30.046 C 186.812 28.877 186.703 27.959 186.549 27.291 C 186.394 26.610 186.144 26.096 185.797 25.749 C 185.450 25.402 184.981 25.184 184.390 25.094 C 183.812 25.004 183.061 24.959 182.136 24.959 C 181.294 24.959 180.453 24.959 179.611 24.959 C 179.611 29.019 179.611 33.078 179.611 37.138 C 181.313 37.138 183.016 37.138 184.718 37.138 C 185.720 37.138 186.600 37.099 187.358 37.022 C 188.116 36.945 188.778 36.804 189.343 36.598 C 189.908 36.393 190.390 36.104 190.788 35.731 C 191.199 35.359 191.553 34.877 191.848 34.286 C 192.144 33.695 192.394 32.975 192.600 32.128 C 192.805 31.280 192.998 30.278 193.178 29.121 C 193.627 29.121 194.077 29.121 194.527 29.121 C 194.398 32.307 194.269 35.493 194.141 38.679 C 186.760 38.679 179.380 38.679 172.000 38.679 C 172.000 38.165 172.000 37.652 172.000 37.138 C 173.284 37.138 174.569 37.138 175.854 37.138 C 175.854 28.832 175.854 20.527 175.854 12.221 C 174.569 12.222 173.284 12.222 172.000 12.221 C 172.000 11.708 172.000 11.194 172.000 10.680 C 179.219 10.680 186.439 10.680 193.659 10.680 C 193.788 13.256 193.916 15.832 194.045 18.407 C 193.595 18.407 193.145 18.407 192.696 18.407 C 192.503 17.122 192.265 16.082 191.983 15.285 C 191.700 14.476 191.302 13.847 190.788 13.397 C 190.287 12.934 189.625 12.626 188.803 12.472 C 187.994 12.305 186.966 12.221 185.720 12.221 C 183.684 12.222 181.647 12.222 179.611 12.221 C 179.611 15.941 179.611 19.660 179.611 23.379 Z"/>
<path fill="#ffffff" fill-rule="evenodd" stroke="none" d="M 226.091 37.138 C 226.091 28.999 226.091 20.861 226.091 12.723 C 226.059 12.723 226.027 12.723 225.995 12.723 C 222.654 21.471 219.314 30.220 215.974 38.968 C 215.467 38.968 214.959 38.968 214.452 38.968 C 211.317 30.233 208.183 21.497 205.048 12.761 C 205.016 12.761 204.984 12.761 204.952 12.761 C 204.952 20.887 204.952 29.012 204.952 37.138 C 206.108 37.138 207.264 37.138 208.420 37.138 C 208.420 37.652 208.420 38.165 208.420 38.679 C 205.401 38.679 202.382 38.679 199.363 38.679 C 199.363 38.165 199.363 37.652 199.363 37.138 C 200.648 37.138 201.933 37.138 203.217 37.138 C 203.217 28.832 203.217 20.527 203.217 12.221 C 201.933 12.222 200.648 12.222 199.363 12.221 C 199.363 11.708 199.363 11.194 199.363 10.680 C 202.337 10.680 205.311 10.680 208.286 10.680 C 210.964 18.112 213.643 25.544 216.321 32.975 C 216.347 32.975 216.372 32.975 216.398 32.975 C 219.250 25.544 222.102 18.112 224.954 10.680 C 227.870 10.680 230.786 10.680 233.703 10.680 C 233.702 11.194 233.702 11.708 233.703 12.221 C 232.418 12.222 231.133 12.222 229.849 12.221 C 229.849 20.527 229.849 28.832 229.849 37.138 C 231.133 37.138 232.418 37.138 233.703 37.138 C 233.702 37.652 233.702 38.165 233.703 38.679 C 230.009 38.679 226.316 38.679 222.623 38.679 C 222.622 38.165 222.622 37.652 222.623 37.138 C 223.779 37.138 224.935 37.138 226.091 37.138 Z"/>
</g>
</g>
</svg>
